<svg width="196" height="217" viewBox="0 0 196 217" fill="none" xmlns="http://www.w3.org/2000/svg">
<path d="M19 51L100 20" stroke="black"/>
<path d="M20 51L97 80" stroke="black"/>
<path d="M21 51L98 143" stroke="black"/>
<path d="M20 52L96 200" stroke="black"/>
<path d="M19 167L97 22" stroke="black"/>
<path d="M20 169L96 79" stroke="black"/>
<path d="M20 168L99 142" stroke="black"/>
<path d="M20 166L95 200" stroke="black"/>
<path d="M97 22L176 48" stroke="black"/>
<path d="M98 20L178 167" stroke="black"/>
<path d="M94 79L174 46" stroke="black"/>
<path d="M94 80L177 169" stroke="black"/>
<path d="M97 140L177 47" stroke="black"/>
<path d="M95 144L178 168" stroke="black"/>
<path d="M98 198L176 46" stroke="black"/>
<path d="M97 199L177 168" stroke="black"/>
<path d="M19 53L100 22" stroke="white"/>
<path d="M20 53L97 82" stroke="white"/>
<path d="M21 53L98 145" stroke="white"/>
<path d="M20 54L96 202" stroke="white"/>
<path d="M19 169L97 24" stroke="white"/>
<path d="M20 171L96 81" stroke="white"/>
<path d="M20 170L99 144" stroke="white"/>
<path d="M20 168L95 202" stroke="white"/>
<path d="M97 24L176 50" stroke="white"/>
<path d="M98 22L178 169" stroke="white"/>
<path d="M94 81L174 48" stroke="white"/>
<path d="M94 82L177 171" stroke="white"/>
<path d="M97 142L177 49" stroke="white"/>
<path d="M95 146L178 170" stroke="white"/>
<path d="M98 200L176 48" stroke="white"/>
<path d="M97 201L177 170" stroke="white"/>
<circle cx="19" cy="48" r="19" fill="#FF0000"/>
<circle cx="177" cy="48" r="19" fill="#FF0000"/>
<circle cx="98" cy="79" r="19" fill="#FF0000"/>
<circle cx="98" cy="19" r="19" fill="#FF0000"/>
<circle cx="19" cy="167" r="19" fill="#FF0000"/>
<circle cx="177" cy="167" r="19" fill="#FF0000"/>
<circle cx="98" cy="198" r="19" fill="#FF0000"/>
<circle cx="98" cy="138" r="19" fill="#FF0000"/>
</svg>
