<svg width="836" height="282" viewBox="0 0 836 282" fill="none" xmlns="http://www.w3.org/2000/svg">
<path d="M317.183 186.089C310.239 186.089 304.597 183.919 300.257 179.579C296.062 175.239 293.964 168.729 293.964 160.049C293.964 156.432 294.543 151.73 295.7 145.944L308.72 84.9663H301.559L303.295 76.2863H310.456L316.966 46.34L349.082 42L341.704 76.2863H354.725L352.988 84.9663H339.968L326.08 150.067C325.502 152.237 325.212 154.552 325.212 157.011C325.212 159.904 325.863 162.002 327.165 163.304C328.612 164.461 330.927 165.04 334.109 165.04C338.305 165.04 342.211 163.304 345.827 159.832C349.444 156.215 352.048 151.586 353.64 145.944H362.754C357.401 161.568 350.529 172.201 342.138 177.843C333.748 183.34 325.429 186.089 317.183 186.089Z" fill="#FF0000"/>
<path d="M385.235 185.655C374.53 185.655 366.067 182.906 359.846 177.409C353.625 171.912 350.515 163.232 350.515 151.369C350.515 141.531 352.54 130.609 356.591 118.602C360.642 106.594 367.152 96.2504 376.121 87.5703C385.091 78.7456 396.375 74.3332 409.973 74.3332C428.491 74.3332 437.75 85.9067 437.75 109.054V109.271C438.184 109.415 438.979 109.488 440.137 109.488C444.911 109.488 450.408 108.258 456.629 105.798C462.849 103.194 468.492 100.084 473.555 96.4674L475.508 102.326C471.313 106.811 465.815 110.645 459.016 113.828C452.361 116.866 445.055 119.036 437.099 120.338C435.941 133.502 432.976 145.003 428.202 154.841C423.428 164.678 417.279 172.273 409.756 177.626C402.234 182.979 394.06 185.655 385.235 185.655ZM393.915 166.125C397.387 166.125 400.859 164.172 404.331 160.266C407.803 156.215 410.841 150.79 413.445 143.991C416.049 137.047 417.93 129.379 419.088 120.989C415.181 120.121 413.228 117.083 413.228 111.875C413.228 105.943 415.471 102.037 419.956 100.156C419.666 95.3824 418.943 92.1274 417.785 90.3914C416.628 88.5107 414.603 87.5703 411.709 87.5703C406.935 87.5703 402.306 91.0424 397.821 97.9864C393.337 104.93 389.72 113.249 386.971 122.942C384.223 132.634 382.848 141.17 382.848 148.548C382.848 155.492 383.644 160.194 385.235 162.653C386.827 164.968 389.72 166.125 393.915 166.125Z" fill="#FF0000"/>
<path d="M482.767 239.037C475.823 239.037 470.037 237.229 465.407 233.612C460.778 229.996 458.463 224.788 458.463 217.988C458.463 209.742 461.79 203.088 468.445 198.024C475.1 193.105 483.563 188.982 493.834 185.655L496.438 173.937C492.243 178.566 487.975 181.749 483.635 183.485C479.295 185.221 474.883 186.089 470.398 186.089C463.454 186.089 457.812 183.919 453.472 179.579C449.277 175.239 447.179 168.729 447.179 160.049C447.179 156.432 447.758 151.73 448.915 145.944L463.671 76.2863H494.919L479.295 150.067C478.861 151.803 478.644 153.611 478.644 155.492C478.644 161.857 480.814 165.04 485.154 165.04C488.916 165.04 492.243 163.449 495.136 160.266C498.03 156.939 500.344 152.598 502.08 147.246L517.271 76.2863H548.519L527.036 176.975C533.98 174.66 539.549 171.188 543.745 166.559C547.94 161.93 551.484 155.058 554.378 145.944H563.492C559.586 158.819 554.305 168.295 547.651 174.371C540.996 180.302 533.473 184.353 525.083 186.523L521.828 202.147C518.934 216.18 513.943 225.8 506.854 231.008C499.766 236.361 491.737 239.037 482.767 239.037ZM477.776 222.111C480.236 222.111 482.623 220.448 484.937 217.12C487.252 213.793 489.06 209.019 490.362 202.798L491.664 196.505C477.487 201.713 470.398 207.862 470.398 214.95C470.398 216.831 471.049 218.495 472.351 219.941C473.653 221.388 475.462 222.111 477.776 222.111Z" fill="#FF0000"/>
<path d="M632.787 186.089C623.962 186.089 617.452 183.774 613.256 179.145C609.206 174.371 607.18 168.512 607.18 161.568C607.18 158.53 607.542 155.13 608.265 151.369C608.989 147.463 609.712 143.701 610.435 140.085C611.303 136.468 611.882 134.153 612.171 133.141C613.329 128.077 614.414 123.086 615.426 118.168C616.439 113.249 616.945 109.271 616.945 106.232C616.945 98.8544 614.341 95.1654 609.133 95.1654C605.372 95.1654 602.045 97.0461 599.151 100.807C596.258 104.424 593.943 109.198 592.207 115.13L577.451 184.787H546.203L569.205 76.2863H600.453L598.066 87.5703C605.3 79.469 613.763 75.4183 623.455 75.4183C630.834 75.4183 636.693 77.4436 641.033 81.4943C645.373 85.545 647.543 91.6934 647.543 99.9394C647.543 104.135 647.036 108.837 646.024 114.045C645.011 119.108 643.564 125.329 641.684 132.707C640.526 137.191 639.441 141.604 638.429 145.944C637.561 150.139 637.127 153.466 637.127 155.926C637.127 158.819 637.778 161.062 639.08 162.653C640.382 164.244 642.624 165.04 645.807 165.04C650.147 165.04 653.619 163.521 656.223 160.483C658.827 157.3 661.431 152.454 664.035 145.944H673.149C667.796 161.857 661.575 172.563 654.487 178.06C647.543 183.413 640.309 186.089 632.787 186.089Z" fill="#FF0000"/>
<path d="M738.658 186.089C730.99 186.089 725.421 183.774 721.949 179.145C718.477 174.516 716.741 168.657 716.741 161.568C716.741 158.53 717.102 155.13 717.826 151.369C718.549 147.463 719.272 143.701 719.996 140.085C720.864 136.468 721.442 134.153 721.732 133.141C722.889 128.077 723.974 123.086 724.987 118.168C725.999 113.249 726.506 109.271 726.506 106.232C726.506 98.8544 723.902 95.1654 718.694 95.1654C714.932 95.1654 711.605 97.0461 708.712 100.807C705.818 104.424 703.504 109.198 701.768 115.13L687.012 184.787H655.763L678.765 76.2863H710.014L707.627 87.5703C714.86 79.469 723.323 75.4183 733.016 75.4183C740.394 75.4183 746.253 77.4436 750.593 81.4943C754.933 85.545 757.103 91.6934 757.103 99.9394C757.103 104.135 756.597 108.837 755.584 114.045C754.571 119.108 753.125 125.329 751.244 132.707C750.087 137.191 749.002 141.604 747.989 145.944C747.121 150.139 746.687 153.466 746.687 155.926C746.687 158.819 747.338 161.062 748.64 162.653C749.942 164.244 752.184 165.04 755.367 165.04C758.839 165.04 761.226 164.606 762.528 163.738C761.66 171.116 758.984 176.686 754.499 180.447C750.159 184.208 744.879 186.089 738.658 186.089Z" fill="#FF0000"/>
<path d="M293.219 186.089C286.275 186.089 280.633 183.919 276.293 179.579C272.098 175.239 270 168.729 270 160.049C270 156.432 270.579 151.73 271.736 145.944L284.756 84.9663H277.595L279.331 76.2863H286.492L293.002 46.34L325.118 42L317.74 76.2863H330.76L329.024 84.9663H316.004L302.116 150.067C301.538 152.237 301.248 154.552 301.248 157.011C301.248 159.904 301.899 162.002 303.201 163.304C304.648 164.461 306.963 165.04 310.145 165.04C314.341 165.04 318.247 163.304 321.863 159.832C325.48 156.215 328.084 151.586 329.675 145.944H338.789C333.437 161.568 326.565 172.201 318.174 177.843C309.784 183.34 301.465 186.089 293.219 186.089Z" fill="black"/>
<path d="M361.271 185.655C350.566 185.655 342.103 182.906 335.882 177.409C329.661 171.912 326.551 163.232 326.551 151.369C326.551 141.531 328.576 130.609 332.627 118.602C336.678 106.594 343.188 96.2504 352.157 87.5703C361.127 78.7456 372.411 74.3332 386.009 74.3332C404.527 74.3332 413.786 85.9067 413.786 109.054V109.271C414.22 109.415 415.015 109.488 416.173 109.488C420.947 109.488 426.444 108.258 432.665 105.798C438.885 103.194 444.527 100.084 449.591 96.4674L451.544 102.326C447.348 106.811 441.851 110.645 435.052 113.828C428.397 116.866 421.091 119.036 413.135 120.338C411.977 133.502 409.012 145.003 404.237 154.841C399.463 164.678 393.315 172.273 385.792 177.626C378.27 182.979 370.096 185.655 361.271 185.655ZM369.951 166.125C373.423 166.125 376.895 164.172 380.367 160.266C383.839 156.215 386.877 150.79 389.481 143.991C392.085 137.047 393.966 129.379 395.123 120.989C391.217 120.121 389.264 117.083 389.264 111.875C389.264 105.943 391.507 102.037 395.991 100.156C395.702 95.3824 394.979 92.1274 393.821 90.3914C392.664 88.5107 390.639 87.5703 387.745 87.5703C382.971 87.5703 378.342 91.0424 373.857 97.9864C369.373 104.93 365.756 113.249 363.007 122.942C360.259 132.634 358.884 141.17 358.884 148.548C358.884 155.492 359.68 160.194 361.271 162.653C362.863 164.968 365.756 166.125 369.951 166.125Z" fill="black"/>
<path d="M458.803 239.037C451.859 239.037 446.072 237.229 441.443 233.612C436.814 229.996 434.499 224.788 434.499 217.988C434.499 209.742 437.826 203.088 444.481 198.024C451.136 193.105 459.599 188.982 469.87 185.655L472.474 173.937C468.279 178.566 464.011 181.749 459.671 183.485C455.331 185.221 450.919 186.089 446.434 186.089C439.49 186.089 433.848 183.919 429.508 179.579C425.313 175.239 423.215 168.729 423.215 160.049C423.215 156.432 423.794 151.73 424.951 145.944L439.707 76.2863H470.955L455.331 150.067C454.897 151.803 454.68 153.611 454.68 155.492C454.68 161.857 456.85 165.04 461.19 165.04C464.952 165.04 468.279 163.449 471.172 160.266C474.066 156.939 476.38 152.598 478.116 147.246L493.306 76.2863H524.555L503.072 176.975C510.016 174.66 515.585 171.188 519.781 166.559C523.976 161.93 527.52 155.058 530.414 145.944H539.528C535.622 158.819 530.341 168.295 523.687 174.371C517.032 180.302 509.509 184.353 501.119 186.523L497.863 202.147C494.97 216.18 489.979 225.8 482.89 231.008C475.802 236.361 467.773 239.037 458.803 239.037ZM453.812 222.111C456.272 222.111 458.659 220.448 460.973 217.12C463.288 213.793 465.096 209.019 466.398 202.798L467.7 196.505C453.523 201.713 446.434 207.862 446.434 214.95C446.434 216.831 447.085 218.495 448.387 219.941C449.689 221.388 451.497 222.111 453.812 222.111Z" fill="black"/>
<path d="M608.822 186.089C599.998 186.089 593.488 183.774 589.292 179.145C585.242 174.371 583.216 168.512 583.216 161.568C583.216 158.53 583.578 155.13 584.301 151.369C585.025 147.463 585.748 143.701 586.471 140.085C587.339 136.468 587.918 134.153 588.207 133.141C589.365 128.077 590.45 123.086 591.462 118.168C592.475 113.249 592.981 109.271 592.981 106.232C592.981 98.8544 590.377 95.1654 585.169 95.1654C581.408 95.1654 578.081 97.0461 575.187 100.807C572.294 104.424 569.979 109.198 568.243 115.13L553.487 184.787H522.239L545.241 76.2863H576.489L574.102 87.5703C581.336 79.469 589.799 75.4183 599.491 75.4183C606.869 75.4183 612.729 77.4436 617.069 81.4943C621.409 85.545 623.579 91.6934 623.579 99.9394C623.579 104.135 623.072 108.837 622.06 114.045C621.047 119.108 619.6 125.329 617.72 132.707C616.562 137.191 615.477 141.604 614.465 145.944C613.597 150.139 613.163 153.466 613.163 155.926C613.163 158.819 613.814 161.062 615.116 162.653C616.418 164.244 618.66 165.04 621.843 165.04C626.183 165.04 629.655 163.521 632.259 160.483C634.863 157.3 637.467 152.454 640.071 145.944H649.185C643.832 161.857 637.611 172.563 630.523 178.06C623.579 183.413 616.345 186.089 608.822 186.089Z" fill="black"/>
<path d="M714.694 186.089C707.026 186.089 701.457 183.774 697.985 179.145C694.513 174.516 692.777 168.657 692.777 161.568C692.777 158.53 693.138 155.13 693.862 151.369C694.585 147.463 695.308 143.701 696.032 140.085C696.9 136.468 697.478 134.153 697.768 133.141C698.925 128.077 700.01 123.086 701.023 118.168C702.035 113.249 702.542 109.271 702.542 106.232C702.542 98.8544 699.938 95.1654 694.73 95.1654C690.968 95.1654 687.641 97.0461 684.748 100.807C681.854 104.424 679.54 109.198 677.804 115.13L663.047 184.787H631.799L654.801 76.2863H686.05L683.663 87.5703C690.896 79.469 699.359 75.4183 709.052 75.4183C716.43 75.4183 722.289 77.4436 726.629 81.4943C730.969 85.545 733.139 91.6934 733.139 99.9394C733.139 104.135 732.633 108.837 731.62 114.045C730.607 119.108 729.161 125.329 727.28 132.707C726.123 137.191 725.038 141.604 724.025 145.944C723.157 150.139 722.723 153.466 722.723 155.926C722.723 158.819 723.374 161.062 724.676 162.653C725.978 164.244 728.22 165.04 731.403 165.04C734.875 165.04 737.262 164.606 738.564 163.738C737.696 171.116 735.02 176.686 730.535 180.447C726.195 184.208 720.914 186.089 714.694 186.089Z" fill="black"/>
<path d="M307.27 186.089C300.326 186.089 294.684 183.919 290.344 179.579C286.149 175.239 284.051 168.729 284.051 160.049C284.051 156.432 284.63 151.73 285.787 145.944L298.807 84.9663H291.646L293.382 76.2863H300.543L307.053 46.34L339.169 42L331.791 76.2863H344.812L343.076 84.9663H330.055L316.167 150.067C315.589 152.237 315.299 154.552 315.299 157.011C315.299 159.904 315.95 162.002 317.252 163.304C318.699 164.461 321.014 165.04 324.196 165.04C328.392 165.04 332.298 163.304 335.914 159.832C339.531 156.215 342.135 151.586 343.727 145.944H352.841C347.488 161.568 340.616 172.201 332.225 177.843C323.835 183.34 315.516 186.089 307.27 186.089Z" fill="white"/>
<path d="M375.322 185.655C364.617 185.655 356.154 182.906 349.933 177.409C343.712 171.912 340.602 163.232 340.602 151.369C340.602 141.531 342.627 130.609 346.678 118.602C350.729 106.594 357.239 96.2504 366.208 87.5703C375.178 78.7456 386.462 74.3332 400.06 74.3332C418.578 74.3332 427.837 85.9067 427.837 109.054V109.271C428.271 109.415 429.066 109.488 430.224 109.488C434.998 109.488 440.495 108.258 446.716 105.798C452.936 103.194 458.579 100.084 463.642 96.4674L465.595 102.326C461.4 106.811 455.902 110.645 449.103 113.828C442.448 116.866 435.142 119.036 427.186 120.338C426.028 133.502 423.063 145.003 418.289 154.841C413.515 164.678 407.366 172.273 399.843 177.626C392.321 182.979 384.147 185.655 375.322 185.655ZM384.002 166.125C387.474 166.125 390.946 164.172 394.418 160.266C397.89 156.215 400.928 150.79 403.532 143.991C406.136 137.047 408.017 129.379 409.175 120.989C405.268 120.121 403.315 117.083 403.315 111.875C403.315 105.943 405.558 102.037 410.043 100.156C409.753 95.3824 409.03 92.1274 407.873 90.3914C406.715 88.5107 404.69 87.5703 401.796 87.5703C397.022 87.5703 392.393 91.0424 387.908 97.9864C383.424 104.93 379.807 113.249 377.058 122.942C374.31 132.634 372.935 141.17 372.935 148.548C372.935 155.492 373.731 160.194 375.322 162.653C376.914 164.968 379.807 166.125 384.002 166.125Z" fill="white"/>
<path d="M472.854 239.037C465.91 239.037 460.124 237.229 455.494 233.612C450.865 229.996 448.55 224.788 448.55 217.988C448.55 209.742 451.877 203.088 458.532 198.024C465.187 193.105 473.65 188.982 483.921 185.655L486.525 173.937C482.33 178.566 478.062 181.749 473.722 183.485C469.382 185.221 464.97 186.089 460.485 186.089C453.541 186.089 447.899 183.919 443.559 179.579C439.364 175.239 437.266 168.729 437.266 160.049C437.266 156.432 437.845 151.73 439.002 145.944L453.758 76.2863H485.006L469.382 150.067C468.948 151.803 468.731 153.611 468.731 155.492C468.731 161.857 470.901 165.04 475.241 165.04C479.003 165.04 482.33 163.449 485.223 160.266C488.117 156.939 490.431 152.598 492.167 147.246L507.358 76.2863H538.606L517.123 176.975C524.067 174.66 529.636 171.188 533.832 166.559C538.027 161.93 541.571 155.058 544.465 145.944H553.579C549.673 158.819 544.392 168.295 537.738 174.371C531.083 180.302 523.56 184.353 515.17 186.523L511.915 202.147C509.021 216.18 504.03 225.8 496.941 231.008C489.853 236.361 481.824 239.037 472.854 239.037ZM467.863 222.111C470.323 222.111 472.71 220.448 475.024 217.12C477.339 213.793 479.147 209.019 480.449 202.798L481.751 196.505C467.574 201.713 460.485 207.862 460.485 214.95C460.485 216.831 461.136 218.495 462.438 219.941C463.74 221.388 465.549 222.111 467.863 222.111Z" fill="white"/>
<path d="M622.874 186.089C614.049 186.089 607.539 183.774 603.343 179.145C599.293 174.371 597.267 168.512 597.267 161.568C597.267 158.53 597.629 155.13 598.352 151.369C599.076 147.463 599.799 143.701 600.522 140.085C601.39 136.468 601.969 134.153 602.258 133.141C603.416 128.077 604.501 123.086 605.513 118.168C606.526 113.249 607.032 109.271 607.032 106.232C607.032 98.8544 604.428 95.1654 599.22 95.1654C595.459 95.1654 592.132 97.0461 589.238 100.807C586.345 104.424 584.03 109.198 582.294 115.13L567.538 184.787H536.29L559.292 76.2863H590.54L588.153 87.5703C595.387 79.469 603.85 75.4183 613.542 75.4183C620.921 75.4183 626.78 77.4436 631.12 81.4943C635.46 85.545 637.63 91.6934 637.63 99.9394C637.63 104.135 637.123 108.837 636.111 114.045C635.098 119.108 633.651 125.329 631.771 132.707C630.613 137.191 629.528 141.604 628.516 145.944C627.648 150.139 627.214 153.466 627.214 155.926C627.214 158.819 627.865 161.062 629.167 162.653C630.469 164.244 632.711 165.04 635.894 165.04C640.234 165.04 643.706 163.521 646.31 160.483C648.914 157.3 651.518 152.454 654.122 145.944H663.236C657.883 161.857 651.662 172.563 644.574 178.06C637.63 183.413 630.396 186.089 622.874 186.089Z" fill="white"/>
<path d="M728.745 186.089C721.077 186.089 715.508 183.774 712.036 179.145C708.564 174.516 706.828 168.657 706.828 161.568C706.828 158.53 707.189 155.13 707.913 151.369C708.636 147.463 709.359 143.701 710.083 140.085C710.951 136.468 711.529 134.153 711.819 133.141C712.976 128.077 714.061 123.086 715.074 118.168C716.086 113.249 716.593 109.271 716.593 106.232C716.593 98.8544 713.989 95.1654 708.781 95.1654C705.019 95.1654 701.692 97.0461 698.799 100.807C695.905 104.424 693.591 109.198 691.855 115.13L677.099 184.787H645.85L668.852 76.2863H700.101L697.714 87.5703C704.947 79.469 713.41 75.4183 723.103 75.4183C730.481 75.4183 736.34 77.4436 740.68 81.4943C745.02 85.545 747.19 91.6934 747.19 99.9394C747.19 104.135 746.684 108.837 745.671 114.045C744.658 119.108 743.212 125.329 741.331 132.707C740.174 137.191 739.089 141.604 738.076 145.944C737.208 150.139 736.774 153.466 736.774 155.926C736.774 158.819 737.425 161.062 738.727 162.653C740.029 164.244 742.271 165.04 745.454 165.04C748.926 165.04 751.313 164.606 752.615 163.738C751.747 171.116 749.071 176.686 744.586 180.447C740.246 184.208 734.966 186.089 728.745 186.089Z" fill="white"/>
<path d="M19 64L100 33" stroke="black"/>
<path d="M20 64L97 93" stroke="black"/>
<path d="M21 64L98 156" stroke="black"/>
<path d="M20 65L96 213" stroke="black"/>
<path d="M19 180L97 35" stroke="black"/>
<path d="M20 182L96 92" stroke="black"/>
<path d="M20 181L99 155" stroke="black"/>
<path d="M20 179L95 213" stroke="black"/>
<path d="M97 35L176 61" stroke="black"/>
<path d="M98 33L178 180" stroke="black"/>
<path d="M94 92L174 59" stroke="black"/>
<path d="M94 93L177 182" stroke="black"/>
<path d="M97 153L177 60" stroke="black"/>
<path d="M95 157L178 181" stroke="black"/>
<path d="M98 211L176 59" stroke="black"/>
<path d="M97 212L177 181" stroke="black"/>
<path d="M19 66L100 35" stroke="white"/>
<path d="M20 66L97 95" stroke="white"/>
<path d="M21 66L98 158" stroke="white"/>
<path d="M20 67L96 215" stroke="white"/>
<path d="M19 182L97 37" stroke="white"/>
<path d="M20 184L96 94" stroke="white"/>
<path d="M20 183L99 157" stroke="white"/>
<path d="M20 181L95 215" stroke="white"/>
<path d="M97 37L176 63" stroke="white"/>
<path d="M98 35L178 182" stroke="white"/>
<path d="M94 94L174 61" stroke="white"/>
<path d="M94 95L177 184" stroke="white"/>
<path d="M97 155L177 62" stroke="white"/>
<path d="M95 159L178 183" stroke="white"/>
<path d="M98 213L176 61" stroke="white"/>
<path d="M97 214L177 183" stroke="white"/>
<circle cx="19" cy="61" r="19" fill="#FF0000"/>
<circle cx="177" cy="61" r="19" fill="#FF0000"/>
<circle cx="98" cy="92" r="19" fill="#FF0000"/>
<circle cx="98" cy="32" r="19" fill="#FF0000"/>
<circle cx="19" cy="180" r="19" fill="#FF0000"/>
<circle cx="177" cy="180" r="19" fill="#FF0000"/>
<circle cx="98" cy="211" r="19" fill="#FF0000"/>
<circle cx="98" cy="151" r="19" fill="#FF0000"/>
</svg>
