<svg width="640" height="282" viewBox="0 0 640 282" fill="none" xmlns="http://www.w3.org/2000/svg">
<path d="M121.183 186.089C114.239 186.089 108.597 183.919 104.257 179.579C100.062 175.239 97.9641 168.729 97.9641 160.049C97.9641 156.432 98.5428 151.73 99.7001 145.944L112.72 84.9663H105.559L107.295 76.2863H114.456L120.966 46.34L153.082 42L145.704 76.2863H158.725L156.988 84.9663H143.968L130.08 150.067C129.502 152.237 129.212 154.552 129.212 157.011C129.212 159.904 129.863 162.002 131.165 163.304C132.612 164.461 134.927 165.04 138.109 165.04C142.305 165.04 146.211 163.304 149.827 159.832C153.444 156.215 156.048 151.586 157.64 145.944H166.754C161.401 161.568 154.529 172.201 146.138 177.843C137.748 183.34 129.429 186.089 121.183 186.089Z" fill="#FF0000"/>
<path d="M189.235 185.655C178.53 185.655 170.067 182.906 163.846 177.409C157.625 171.912 154.515 163.232 154.515 151.369C154.515 141.531 156.54 130.609 160.591 118.602C164.642 106.594 171.152 96.2504 180.121 87.5703C189.091 78.7456 200.375 74.3332 213.973 74.3332C232.491 74.3332 241.75 85.9067 241.75 109.054V109.271C242.184 109.415 242.979 109.488 244.137 109.488C248.911 109.488 254.408 108.258 260.629 105.798C266.849 103.194 272.492 100.084 277.555 96.4674L279.508 102.326C275.313 106.811 269.815 110.645 263.016 113.828C256.361 116.866 249.055 119.036 241.099 120.338C239.941 133.502 236.976 145.003 232.202 154.841C227.428 164.678 221.279 172.273 213.756 177.626C206.234 182.979 198.06 185.655 189.235 185.655ZM197.915 166.125C201.387 166.125 204.859 164.172 208.331 160.266C211.803 156.215 214.841 150.79 217.445 143.991C220.049 137.047 221.93 129.379 223.088 120.989C219.181 120.121 217.228 117.083 217.228 111.875C217.228 105.943 219.471 102.037 223.956 100.156C223.666 95.3824 222.943 92.1274 221.785 90.3914C220.628 88.5107 218.603 87.5703 215.709 87.5703C210.935 87.5703 206.306 91.0424 201.821 97.9864C197.337 104.93 193.72 113.249 190.971 122.942C188.223 132.634 186.848 141.17 186.848 148.548C186.848 155.492 187.644 160.194 189.235 162.653C190.827 164.968 193.72 166.125 197.915 166.125Z" fill="#FF0000"/>
<path d="M286.767 239.037C279.823 239.037 274.037 237.229 269.407 233.612C264.778 229.996 262.463 224.788 262.463 217.988C262.463 209.742 265.79 203.088 272.445 198.024C279.1 193.105 287.563 188.982 297.834 185.655L300.438 173.937C296.243 178.566 291.975 181.749 287.635 183.485C283.295 185.221 278.883 186.089 274.398 186.089C267.454 186.089 261.812 183.919 257.472 179.579C253.277 175.239 251.179 168.729 251.179 160.049C251.179 156.432 251.758 151.73 252.915 145.944L267.671 76.2863H298.919L283.295 150.067C282.861 151.803 282.644 153.611 282.644 155.492C282.644 161.857 284.814 165.04 289.154 165.04C292.916 165.04 296.243 163.449 299.136 160.266C302.03 156.939 304.344 152.598 306.08 147.246L321.271 76.2863H352.519L331.036 176.975C337.98 174.66 343.549 171.188 347.745 166.559C351.94 161.93 355.484 155.058 358.378 145.944H367.492C363.586 158.819 358.305 168.295 351.651 174.371C344.996 180.302 337.473 184.353 329.083 186.523L325.828 202.147C322.934 216.18 317.943 225.8 310.854 231.008C303.766 236.361 295.737 239.037 286.767 239.037ZM281.776 222.111C284.236 222.111 286.623 220.448 288.937 217.12C291.252 213.793 293.06 209.019 294.362 202.798L295.664 196.505C281.487 201.713 274.398 207.862 274.398 214.95C274.398 216.831 275.049 218.495 276.351 219.941C277.653 221.388 279.462 222.111 281.776 222.111Z" fill="#FF0000"/>
<path d="M436.787 186.089C427.962 186.089 421.452 183.774 417.256 179.145C413.206 174.371 411.18 168.512 411.18 161.568C411.18 158.53 411.542 155.13 412.265 151.369C412.989 147.463 413.712 143.701 414.435 140.085C415.303 136.468 415.882 134.153 416.171 133.141C417.329 128.077 418.414 123.086 419.426 118.168C420.439 113.249 420.945 109.271 420.945 106.232C420.945 98.8544 418.341 95.1654 413.133 95.1654C409.372 95.1654 406.045 97.0461 403.151 100.807C400.258 104.424 397.943 109.198 396.207 115.13L381.451 184.787H350.203L373.205 76.2863H404.453L402.066 87.5703C409.3 79.469 417.763 75.4183 427.455 75.4183C434.834 75.4183 440.693 77.4436 445.033 81.4943C449.373 85.545 451.543 91.6934 451.543 99.9394C451.543 104.135 451.036 108.837 450.024 114.045C449.011 119.108 447.564 125.329 445.684 132.707C444.526 137.191 443.441 141.604 442.429 145.944C441.561 150.139 441.127 153.466 441.127 155.926C441.127 158.819 441.778 161.062 443.08 162.653C444.382 164.244 446.624 165.04 449.807 165.04C454.147 165.04 457.619 163.521 460.223 160.483C462.827 157.3 465.431 152.454 468.035 145.944H477.149C471.796 161.857 465.575 172.563 458.487 178.06C451.543 183.413 444.309 186.089 436.787 186.089Z" fill="#FF0000"/>
<path d="M542.658 186.089C534.99 186.089 529.421 183.774 525.949 179.145C522.477 174.516 520.741 168.657 520.741 161.568C520.741 158.53 521.102 155.13 521.826 151.369C522.549 147.463 523.272 143.701 523.996 140.085C524.864 136.468 525.442 134.153 525.732 133.141C526.889 128.077 527.974 123.086 528.987 118.168C529.999 113.249 530.506 109.271 530.506 106.232C530.506 98.8544 527.902 95.1654 522.694 95.1654C518.932 95.1654 515.605 97.0461 512.712 100.807C509.818 104.424 507.504 109.198 505.768 115.13L491.012 184.787H459.763L482.765 76.2863H514.014L511.627 87.5703C518.86 79.469 527.323 75.4183 537.016 75.4183C544.394 75.4183 550.253 77.4436 554.593 81.4943C558.933 85.545 561.103 91.6934 561.103 99.9394C561.103 104.135 560.597 108.837 559.584 114.045C558.571 119.108 557.125 125.329 555.244 132.707C554.087 137.191 553.002 141.604 551.989 145.944C551.121 150.139 550.687 153.466 550.687 155.926C550.687 158.819 551.338 161.062 552.64 162.653C553.942 164.244 556.184 165.04 559.367 165.04C562.839 165.04 565.226 164.606 566.528 163.738C565.66 171.116 562.984 176.686 558.499 180.447C554.159 184.208 548.879 186.089 542.658 186.089Z" fill="#FF0000"/>
<path d="M97.2192 186.089C90.2751 186.089 84.6331 183.919 80.293 179.579C76.0977 175.239 74 168.729 74 160.049C74 156.432 74.5787 151.73 75.736 145.944L88.7561 84.9663H81.5951L83.3311 76.2863H90.4921L97.0022 46.34L129.118 42L121.74 76.2863H134.76L133.024 84.9663H120.004L106.116 150.067C105.538 152.237 105.248 154.552 105.248 157.011C105.248 159.904 105.899 162.002 107.201 163.304C108.648 164.461 110.963 165.04 114.145 165.04C118.341 165.04 122.247 163.304 125.863 159.832C129.48 156.215 132.084 151.586 133.675 145.944H142.789C137.437 161.568 130.565 172.201 122.174 177.843C113.784 183.34 105.465 186.089 97.2192 186.089Z" fill="black"/>
<path d="M165.271 185.655C154.566 185.655 146.103 182.906 139.882 177.409C133.661 171.912 130.551 163.232 130.551 151.369C130.551 141.531 132.576 130.609 136.627 118.602C140.678 106.594 147.188 96.2504 156.157 87.5703C165.127 78.7456 176.411 74.3332 190.009 74.3332C208.527 74.3332 217.786 85.9067 217.786 109.054V109.271C218.22 109.415 219.015 109.488 220.173 109.488C224.947 109.488 230.444 108.258 236.665 105.798C242.885 103.194 248.527 100.084 253.591 96.4674L255.544 102.326C251.348 106.811 245.851 110.645 239.052 113.828C232.397 116.866 225.091 119.036 217.135 120.338C215.977 133.502 213.012 145.003 208.238 154.841C203.463 164.678 197.315 172.273 189.792 177.626C182.27 182.979 174.096 185.655 165.271 185.655ZM173.951 166.125C177.423 166.125 180.895 164.172 184.367 160.266C187.839 156.215 190.877 150.79 193.481 143.991C196.085 137.047 197.966 129.379 199.123 120.989C195.217 120.121 193.264 117.083 193.264 111.875C193.264 105.943 195.507 102.037 199.991 100.156C199.702 95.3824 198.979 92.1274 197.821 90.3914C196.664 88.5107 194.639 87.5703 191.745 87.5703C186.971 87.5703 182.342 91.0424 177.857 97.9864C173.373 104.93 169.756 113.249 167.007 122.942C164.259 132.634 162.884 141.17 162.884 148.548C162.884 155.492 163.68 160.194 165.271 162.653C166.863 164.968 169.756 166.125 173.951 166.125Z" fill="black"/>
<path d="M262.803 239.037C255.859 239.037 250.072 237.229 245.443 233.612C240.814 229.996 238.499 224.788 238.499 217.988C238.499 209.742 241.826 203.088 248.481 198.024C255.136 193.105 263.599 188.982 273.87 185.655L276.474 173.937C272.279 178.566 268.011 181.749 263.671 183.485C259.331 185.221 254.919 186.089 250.434 186.089C243.49 186.089 237.848 183.919 233.508 179.579C229.313 175.239 227.215 168.729 227.215 160.049C227.215 156.432 227.794 151.73 228.951 145.944L243.707 76.2863H274.955L259.331 150.067C258.897 151.803 258.68 153.611 258.68 155.492C258.68 161.857 260.85 165.04 265.19 165.04C268.952 165.04 272.279 163.449 275.172 160.266C278.066 156.939 280.38 152.598 282.116 147.246L297.306 76.2863H328.555L307.072 176.975C314.016 174.66 319.585 171.188 323.781 166.559C327.976 161.93 331.52 155.058 334.414 145.944H343.528C339.622 158.819 334.341 168.295 327.687 174.371C321.032 180.302 313.509 184.353 305.119 186.523L301.863 202.147C298.97 216.18 293.979 225.8 286.89 231.008C279.802 236.361 271.773 239.037 262.803 239.037ZM257.812 222.111C260.272 222.111 262.659 220.448 264.973 217.12C267.288 213.793 269.096 209.019 270.398 202.798L271.7 196.505C257.523 201.713 250.434 207.862 250.434 214.95C250.434 216.831 251.085 218.495 252.387 219.941C253.689 221.388 255.497 222.111 257.812 222.111Z" fill="black"/>
<path d="M412.822 186.089C403.998 186.089 397.488 183.774 393.292 179.145C389.242 174.371 387.216 168.512 387.216 161.568C387.216 158.53 387.578 155.13 388.301 151.369C389.025 147.463 389.748 143.701 390.471 140.085C391.339 136.468 391.918 134.153 392.207 133.141C393.365 128.077 394.45 123.086 395.462 118.168C396.475 113.249 396.981 109.271 396.981 106.232C396.981 98.8544 394.377 95.1654 389.169 95.1654C385.408 95.1654 382.081 97.0461 379.187 100.807C376.294 104.424 373.979 109.198 372.243 115.13L357.487 184.787H326.239L349.241 76.2863H380.489L378.102 87.5703C385.336 79.469 393.799 75.4183 403.491 75.4183C410.869 75.4183 416.728 77.4436 421.069 81.4943C425.409 85.545 427.579 91.6934 427.579 99.9394C427.579 104.135 427.072 108.837 426.06 114.045C425.047 119.108 423.6 125.329 421.72 132.707C420.562 137.191 419.477 141.604 418.465 145.944C417.596 150.139 417.163 153.466 417.163 155.926C417.163 158.819 417.814 161.062 419.116 162.653C420.418 164.244 422.66 165.04 425.843 165.04C430.183 165.04 433.655 163.521 436.259 160.483C438.863 157.3 441.467 152.454 444.071 145.944H453.185C447.832 161.857 441.611 172.563 434.523 178.06C427.579 183.413 420.345 186.089 412.822 186.089Z" fill="black"/>
<path d="M518.694 186.089C511.026 186.089 505.457 183.774 501.985 179.145C498.513 174.516 496.777 168.657 496.777 161.568C496.777 158.53 497.138 155.13 497.862 151.369C498.585 147.463 499.308 143.701 500.032 140.085C500.9 136.468 501.478 134.153 501.768 133.141C502.925 128.077 504.01 123.086 505.023 118.168C506.035 113.249 506.542 109.271 506.542 106.232C506.542 98.8544 503.938 95.1654 498.73 95.1654C494.968 95.1654 491.641 97.0461 488.748 100.807C485.854 104.424 483.54 109.198 481.804 115.13L467.047 184.787H435.799L458.801 76.2863H490.05L487.663 87.5703C494.896 79.469 503.359 75.4183 513.052 75.4183C520.43 75.4183 526.289 77.4436 530.629 81.4943C534.969 85.545 537.139 91.6934 537.139 99.9394C537.139 104.135 536.633 108.837 535.62 114.045C534.607 119.108 533.161 125.329 531.28 132.707C530.123 137.191 529.038 141.604 528.025 145.944C527.157 150.139 526.723 153.466 526.723 155.926C526.723 158.819 527.374 161.062 528.676 162.653C529.978 164.244 532.22 165.04 535.403 165.04C538.875 165.04 541.262 164.606 542.564 163.738C541.696 171.116 539.02 176.686 534.535 180.447C530.195 184.208 524.914 186.089 518.694 186.089Z" fill="black"/>
<path d="M111.27 186.089C104.326 186.089 98.6842 183.919 94.3441 179.579C90.1488 175.239 88.0511 168.729 88.0511 160.049C88.0511 156.432 88.6298 151.73 89.7871 145.944L102.807 84.9663H95.6461L97.3822 76.2863H104.543L111.053 46.34L143.169 42L135.791 76.2863H148.812L147.076 84.9663H134.055L120.167 150.067C119.589 152.237 119.299 154.552 119.299 157.011C119.299 159.904 119.95 162.002 121.252 163.304C122.699 164.461 125.014 165.04 128.196 165.04C132.392 165.04 136.298 163.304 139.914 159.832C143.531 156.215 146.135 151.586 147.727 145.944H156.841C151.488 161.568 144.616 172.201 136.225 177.843C127.835 183.34 119.516 186.089 111.27 186.089Z" fill="white"/>
<path d="M179.322 185.655C168.617 185.655 160.154 182.906 153.933 177.409C147.712 171.912 144.602 163.232 144.602 151.369C144.602 141.531 146.627 130.609 150.678 118.602C154.729 106.594 161.239 96.2504 170.208 87.5703C179.178 78.7456 190.462 74.3332 204.06 74.3332C222.578 74.3332 231.837 85.9067 231.837 109.054V109.271C232.271 109.415 233.066 109.488 234.224 109.488C238.998 109.488 244.495 108.258 250.716 105.798C256.936 103.194 262.579 100.084 267.642 96.4674L269.595 102.326C265.4 106.811 259.902 110.645 253.103 113.828C246.448 116.866 239.142 119.036 231.186 120.338C230.028 133.502 227.063 145.003 222.289 154.841C217.515 164.678 211.366 172.273 203.843 177.626C196.321 182.979 188.147 185.655 179.322 185.655ZM188.002 166.125C191.474 166.125 194.946 164.172 198.418 160.266C201.89 156.215 204.928 150.79 207.532 143.991C210.136 137.047 212.017 129.379 213.175 120.989C209.268 120.121 207.315 117.083 207.315 111.875C207.315 105.943 209.558 102.037 214.043 100.156C213.753 95.3824 213.03 92.1274 211.872 90.3914C210.715 88.5107 208.69 87.5703 205.796 87.5703C201.022 87.5703 196.393 91.0424 191.908 97.9864C187.424 104.93 183.807 113.249 181.058 122.942C178.31 132.634 176.935 141.17 176.935 148.548C176.935 155.492 177.731 160.194 179.322 162.653C180.914 164.968 183.807 166.125 188.002 166.125Z" fill="white"/>
<path d="M276.854 239.037C269.91 239.037 264.124 237.229 259.494 233.612C254.865 229.996 252.55 224.788 252.55 217.988C252.55 209.742 255.877 203.088 262.532 198.024C269.187 193.105 277.65 188.982 287.921 185.655L290.525 173.937C286.33 178.566 282.062 181.749 277.722 183.485C273.382 185.221 268.97 186.089 264.485 186.089C257.541 186.089 251.899 183.919 247.559 179.579C243.364 175.239 241.266 168.729 241.266 160.049C241.266 156.432 241.845 151.73 243.002 145.944L257.758 76.2863H289.006L273.382 150.067C272.948 151.803 272.731 153.611 272.731 155.492C272.731 161.857 274.901 165.04 279.241 165.04C283.003 165.04 286.33 163.449 289.223 160.266C292.117 156.939 294.431 152.598 296.167 147.246L311.358 76.2863H342.606L321.123 176.975C328.067 174.66 333.636 171.188 337.832 166.559C342.027 161.93 345.571 155.058 348.465 145.944H357.579C353.673 158.819 348.392 168.295 341.738 174.371C335.083 180.302 327.56 184.353 319.17 186.523L315.915 202.147C313.021 216.18 308.03 225.8 300.941 231.008C293.853 236.361 285.824 239.037 276.854 239.037ZM271.863 222.111C274.323 222.111 276.71 220.448 279.024 217.12C281.339 213.793 283.147 209.019 284.449 202.798L285.751 196.505C271.574 201.713 264.485 207.862 264.485 214.95C264.485 216.831 265.136 218.495 266.438 219.941C267.74 221.388 269.549 222.111 271.863 222.111Z" fill="white"/>
<path d="M426.874 186.089C418.049 186.089 411.539 183.774 407.343 179.145C403.293 174.371 401.267 168.512 401.267 161.568C401.267 158.53 401.629 155.13 402.352 151.369C403.076 147.463 403.799 143.701 404.522 140.085C405.39 136.468 405.969 134.153 406.258 133.141C407.416 128.077 408.501 123.086 409.513 118.168C410.526 113.249 411.032 109.271 411.032 106.232C411.032 98.8544 408.428 95.1654 403.22 95.1654C399.459 95.1654 396.132 97.0461 393.238 100.807C390.345 104.424 388.03 109.198 386.294 115.13L371.538 184.787H340.29L363.292 76.2863H394.54L392.153 87.5703C399.387 79.469 407.85 75.4183 417.542 75.4183C424.921 75.4183 430.78 77.4436 435.12 81.4943C439.46 85.545 441.63 91.6934 441.63 99.9394C441.63 104.135 441.123 108.837 440.111 114.045C439.098 119.108 437.651 125.329 435.771 132.707C434.613 137.191 433.528 141.604 432.516 145.944C431.648 150.139 431.214 153.466 431.214 155.926C431.214 158.819 431.865 161.062 433.167 162.653C434.469 164.244 436.711 165.04 439.894 165.04C444.234 165.04 447.706 163.521 450.31 160.483C452.914 157.3 455.518 152.454 458.122 145.944H467.236C461.883 161.857 455.662 172.563 448.574 178.06C441.63 183.413 434.396 186.089 426.874 186.089Z" fill="white"/>
<path d="M532.745 186.089C525.077 186.089 519.508 183.774 516.036 179.145C512.564 174.516 510.828 168.657 510.828 161.568C510.828 158.53 511.189 155.13 511.913 151.369C512.636 147.463 513.359 143.701 514.083 140.085C514.951 136.468 515.529 134.153 515.819 133.141C516.976 128.077 518.061 123.086 519.074 118.168C520.086 113.249 520.593 109.271 520.593 106.232C520.593 98.8544 517.989 95.1654 512.781 95.1654C509.019 95.1654 505.692 97.0461 502.799 100.807C499.905 104.424 497.591 109.198 495.855 115.13L481.099 184.787H449.85L472.852 76.2863H504.101L501.714 87.5703C508.947 79.469 517.41 75.4183 527.103 75.4183C534.481 75.4183 540.34 77.4436 544.68 81.4943C549.02 85.545 551.19 91.6934 551.19 99.9394C551.19 104.135 550.684 108.837 549.671 114.045C548.658 119.108 547.212 125.329 545.331 132.707C544.174 137.191 543.089 141.604 542.076 145.944C541.208 150.139 540.774 153.466 540.774 155.926C540.774 158.819 541.425 161.062 542.727 162.653C544.029 164.244 546.271 165.04 549.454 165.04C552.926 165.04 555.313 164.606 556.615 163.738C555.747 171.116 553.071 176.686 548.586 180.447C544.246 184.208 538.966 186.089 532.745 186.089Z" fill="white"/>
</svg>
